Coordinates
version=1
nRows=8
nColumns=40
inDegrees=yes

Units are S.I. units (second, meters, Newtons, ...)
Angles are in degrees.

endheader
time	pelvis_tilt	pelvis_list	pelvis_rotation	pelvis_tx	pelvis_ty	pelvis_tz	hip_flexion_r	hip_adduction_r	hip_rotation_r	knee_angle_r	knee_angle_r_beta	ankle_angle_r	subtalar_angle_r	mtp_angle_r	hip_flexion_l	hip_adduction_l	hip_rotation_l	knee_angle_l	knee_angle_l_beta	ankle_angle_l	subtalar_angle_l	mtp_angle_l	lumbar_extension	lumbar_bending	lumbar_rotation	arm_flex_r	arm_add_r	arm_rot_r	elbow_flex_r	pro_sup_r	wrist_flex_r	wrist_dev_r	arm_flex_l	arm_add_l	arm_rot_l	elbow_flex_l	pro_sup_l	wrist_flex_l	wrist_dev_l
     35.42000000	     -3.19198353	     -3.97857705	      4.77701637	      1.02051295	      0.91675312	      0.54973125	     15.12360764	      4.21738696	     -9.63020414	     27.26312200	     27.26312200	     17.04863241	     -9.70233215	     -2.63215788	     25.11291898	    -12.40929271	      4.78963099	     55.08033578	     55.08033578	     10.75054331	    -14.63898619	      4.03219222	     -9.28226687	      4.43531415	      0.58552724	      9.90200658	    -13.89993361	     -2.52288875	     23.52654779	     46.20478601	      0.00000000	      0.00000000	      3.62841104	     -7.91014015	     -3.74376411	     24.61044516	     45.05274252	      0.00000000	      0.00000000
     35.44121429	     -3.12203567	     -3.78997835	      5.28119087	      1.01935023	      0.91707537	      0.55140385	     14.74890960	      4.14500221	     -9.87830423	     27.11637443	     27.11637443	     17.16392973	     -9.89239236	     -2.52171496	     26.38761859	    -12.11051220	      5.22304989	     55.58696293	     55.58696293	     10.50852522	    -15.90744355	      4.55226226	     -9.04556610	      4.22040204	      0.86335754	     13.22886975	    -14.12201855	     -2.68988520	     25.14834229	     46.18693343	      0.00000000	      0.00000000	      1.35644420	     -7.63057788	     -3.52864447	     23.51995392	     44.98999614	      0.00000000	      0.00000000
     35.46242857	     -3.03984532	     -3.63003056	      5.73663850	      1.01817778	      0.91760896	      0.55313215	     14.29790726	      4.13236025	    -10.08402627	     26.85920005	     26.85920005	     17.21678544	    -10.06748420	     -2.39071682	     27.56893641	    -11.95725676	      5.41666333	     55.74474229	     55.74474229	     10.34602567	    -16.80748063	      4.97362752	     -8.85722323	      4.04922457	      1.72619735	     16.46750128	    -14.71521238	     -2.83575306	     26.61985600	     46.16787103	      0.00000000	      0.00000000	     -0.72617364	     -7.27626004	     -3.34945161	     22.63494873	     44.92502958	      0.00000000	      0.00000000
     35.48364286	     -2.98690341	     -3.45909570	      6.34057629	      1.01694956	      0.91847528	      0.55454194	     13.72042563	      4.10757391	    -10.37963848	     26.31590715	     26.31590715	     17.22521866	    -10.26150485	     -2.15254256	     28.68905137	    -11.66767672	      5.73180021	     55.42651408	     55.42651408	     10.19123202	    -17.68715426	      5.85911381	     -8.62631476	      3.93069575	      1.49599692	     20.19610801	    -14.76924675	     -3.00976234	     28.73062593	     46.12541804	      0.00000000	      0.00000000	     -3.24618696	     -7.13594395	     -2.96467707	     21.53774449	     44.81190200	      0.00000000	      0.00000000
     35.50485714	     -2.98002945	     -3.24195679	      6.90477880	      1.01572252	      0.91965005	      0.55572405	     13.07720711	      4.01686912	    -10.73304687	     25.57856422	     25.57856422	     17.16934811	    -10.25456349	     -1.92888028	     29.63493490	    -11.42783863	      5.72546412	     54.53031037	     54.53031037	     10.25932391	    -18.02990075	      6.90657696	     -8.39507704	      3.77685885	      1.64777187	     23.69884250	    -15.07500691	     -3.15229211	     30.76600426	     46.08065121	      0.00000000	      0.00000000	     -5.58562634	     -7.05250418	     -2.44120142	     20.91660348	     44.66257176	      0.00000000	      0.00000000
     35.52607143	     -3.01792556	     -3.04208235	      7.46164284	      1.01445991	      0.92115001	      0.55663789	     12.34682957	      3.93790471	    -11.14026672	     24.57592163	     24.57592163	     16.99868143	    -10.05407079	     -1.72307821	     30.37368540	    -11.16673802	      5.66248538	     52.97262399	     52.97262399	     10.21130788	    -18.20203042	      7.82234171	     -8.17060482	      3.63711705	      1.92486641	     27.02851806	    -15.50466764	     -3.26950657	     32.83605808	     46.03011378	      0.00000000	      0.00000000	     -7.71436599	     -6.95809880	     -1.88596545	     20.53902088	     44.50092844	      0.00000000	      0.00000000
     35.54728571	     -3.13428077	     -2.80953088	      8.01786282	      1.01316295	      0.92290647	      0.55721329	     11.57871707	      3.80840675	    -11.60660928	     23.35793797	     23.35793797	     16.76465433	     -9.71579735	     -1.54435024	     30.87257656	    -10.83341163	      5.48218891	     50.70458299	     50.70458299	     10.00220923	    -18.17467345	      8.49058368	     -7.89196680	      3.47153157	      2.17492169	     30.20310573	    -15.93055123	     -3.34560197	     34.99235083	     45.97140650	      0.00000000	      0.00000000	     -9.63345743	     -6.87554191	     -1.35742958	     20.33630038	     44.34207205	      0.00000000	      0.00000000
     35.56850000	     -3.28054931	     -2.60231214	      8.56996782	      1.01175208	      0.92452848	      0.55741930	     10.80790539	      3.69704454	    -12.06992705	     22.00226341	     22.00226341	     15.99170710	     -9.66741341	     -2.82150943	     31.15009363	    -10.49839459	      5.22672735	     47.87174691	     47.87174691	      9.25089994	    -18.03607639	      7.76090236	     -7.68302762	      3.40450516	      2.73171850	     32.06435330	    -17.62337868	     -0.13787573	     40.71646030	     45.58223987	      0.00000000	      0.00000000	    -13.04462416	     -8.93633657	     13.14861224	     24.96792369	     41.65186522	      0.00000000	      0.00000000
